<?xml version="1.0" encoding="utf-8"?>
<!-- Generator: Adobe Illustrator 24.3.0, SVG Export Plug-In . SVG Version: 6.00 Build 0)  -->
<svg version="1.1" id="Layer_1" xmlns="http://www.w3.org/2000/svg" xmlns:xlink="http://www.w3.org/1999/xlink" x="0px" y="0px"
	 viewBox="0 0 566.73 174.66" style="enable-background:new 0 0 566.73 174.66;" xml:space="preserve">
<style type="text/css">
	.st0{opacity:0.47;}
</style>
<path d="M557.31,34.18c-3.14,2.43-25.45,19.48-42.36,25.57l22.57-3.49c-22.1,22.43-57.62,20.71-64.41,22.83
	c-12.78,4-27.74,10.11-38.39,14.7c8.48-7.05,15.38-14.37,17.38-20.72c6.55-20.76,41.98-20.51,42.39-20.49l14.84,0.24l-13.2-6.8
	c-4.9-2.53-9.92-4.42-14.59-5.82l7.85-10.46c0,0,48.9-0.67,77.35-17.21c0,0-22.8,22.64-41.89,29.99
	C530,41.72,552.78,37.24,557.31,34.18z"/>
<path class="st0" d="M557.34,34.16c0.13-0.1,0.22-0.17,0.27-0.22C557.54,34.01,557.44,34.08,557.34,34.16z"/>
<g>
	<path d="M0,172.45V43.39h66.47c12.33,0,21.74,1.06,28.26,3.17c6.51,2.11,11.77,6.03,15.76,11.75c3.99,5.72,5.99,12.69,5.99,20.91
		c0,7.16-1.53,13.34-4.58,18.53c-3.05,5.19-7.25,9.41-12.6,12.63c-3.41,2.06-8.07,3.76-14.01,5.11c4.75,1.59,8.21,3.17,10.38,4.76
		c1.47,1.06,3.59,3.32,6.38,6.79c2.79,3.47,4.65,6.14,5.59,8.02l19.31,37.4H81.89l-21.32-39.44c-2.7-5.11-5.11-8.42-7.22-9.95
		c-2.88-1.99-6.13-2.99-9.77-2.99h-3.52v52.38H0z M40.06,95.69h16.82c1.82,0,5.34-0.59,10.56-1.76c2.64-0.53,4.8-1.88,6.47-4.05
		c1.67-2.17,2.51-4.67,2.51-7.48c0-4.17-1.32-7.36-3.96-9.6c-2.64-2.23-7.6-3.35-14.88-3.35H40.06V95.69z"/>
	<path d="M139.71,43.39h39.88v97.28h62.24v31.78H139.71V43.39z"/>
	<path d="M342.81,119.63l34.95,10.56c-2.35,9.8-6.05,17.99-11.09,24.56c-5.05,6.57-11.31,11.53-18.8,14.88
		c-7.48,3.35-17.01,5.02-28.57,5.02c-14.03,0-25.49-2.04-34.38-6.11c-8.89-4.08-16.57-11.25-23.02-21.51
		c-6.46-10.26-9.68-23.4-9.68-39.42c0-21.35,5.68-37.76,17.03-49.22c11.36-11.47,27.42-17.2,48.2-17.2
		c16.26,0,29.04,3.29,38.34,9.86c9.3,6.57,16.21,16.67,20.73,30.28l-35.21,7.84c-1.23-3.93-2.52-6.81-3.87-8.63
		c-2.23-3.05-4.96-5.4-8.19-7.04c-3.23-1.64-6.84-2.46-10.83-2.46c-9.04,0-15.96,3.64-20.78,10.9c-3.64,5.39-5.46,13.86-5.46,25.41
		c0,14.3,2.17,24.11,6.51,29.41c4.34,5.31,10.45,7.96,18.31,7.96c7.63,0,13.4-2.14,17.3-6.43
		C338.22,134.01,341.05,127.79,342.81,119.63z"/>
</g>
<path d="M460.37,39.63l-0.77-0.21l-23.74-9.74c-1.24-0.51-2.52-0.83-3.81-0.96c0.01-0.01,0.01-0.01,0.01-0.01l-20.74-3.02
	c0,0,6.01,4.12,5.98,9.93l-24.33,20.96l-21.34-34.47c0,0-81.05-3.92-116.09-22.11c0,0,23.5,21.49,41.74,28.49l-23.53-2.19
	c0,0,7.86,8.48,22.68,13.66c6.43-1.5,13.44-2.25,21.02-2.25c16.92,0,30.49,3.54,40.35,10.51c9.88,6.97,18.06,17.51,22.03,32.02
	c2.62,9.56,5.21,26.11,4.95,39.26c0,0,58.3-29.4,63.99-47.47c7.42-23.54,45.76-22.92,45.76-22.92
	C478.35,40.76,460.37,39.63,460.37,39.63z M427.7,42.39l10.08-1.98l-2.37-5.03l12.11,8.3L427.7,42.39z"/>
</svg>
